{
	"asset":{
		"generator":"Khronos glTF Blender I/O v4.2.70",
		"version":"2.0"
	},
	"extensionsUsed":[
		"KHR_materials_transmission",
		"KHR_materials_specular",
		"KHR_materials_ior"
	],
	"scene":0,
	"scenes":[
		{
			"name":"Scene",
			"nodes":[
				0,
				1,
				2,
				3,
				4,
				5,
				6,
				7,
				8,
				9,
				10
			]
		}
	],
	"nodes":[
		{
			"mesh":0,
			"name":"Cylinder.001",
			"scale":[
				0.20260415971279144,
				0.004604327958077192,
				0.20260415971279144
			],
			"translation":[
				0,
				0.009999997913837433,
				0
			]
		},
		{
			"mesh":1,
			"name":"Cylinder.002",
			"scale":[
				0.16757391393184662,
				0.0038082401733845472,
				0.16757391393184662
			],
			"translation":[
				1.119828462600708,
				0.12999999523162842,
				0
			]
		},
		{
			"name":"B\u00e9zierCircle.001",
			"scale":[
				1.4592468738555908,
				1.4592468738555908,
				1.4592468738555908
			]
		},
		{
			"name":"B\u00e9zierCircle.002",
			"scale":[
				2.899143934249878,
				2.899143934249878,
				2.899143934249878
			],
			"translation":[
				0,
				0.0012740219244733453,
				0
			]
		},
		{
			"mesh":2,
			"name":"Sphere",
			"translation":[
				0,
				0.08999999612569809,
				0
			]
		},
		{
			"mesh":3,
			"name":"Cube",
			"rotation":[
				0.19134169816970825,
				0.19134171307086945,
				-0.4619397521018982,
				0.8446232080459595
			],
			"translation":[
				0,
				0.6199997663497925,
				0
			]
		},
		{
			"mesh":4,
			"name":"Tree",
			"rotation":[
				0.7071068286895752,
				0,
				0,
				0.7071068286895752
			],
			"scale":[
				0.5,
				0.5,
				0.5
			]
		},
		{
			"mesh":5,
			"name":"Parete"
		},
		{
			"mesh":6,
			"name":"Pavimento"
		},
		{
			"mesh":7,
			"name":"Cupoletta",
			"rotation":[
				0,
				0,
				1,
				4.371138473402425e-08
			],
			"scale":[
				0.24608749151229858,
				0.24608749151229858,
				0.24608749151229858
			],
			"translation":[
				0,
				4.910027980804443,
				0
			]
		},
		{
			"mesh":8,
			"name":"Torus",
			"translation":[
				0,
				3.700000047683716,
				0
			]
		}
	],
	"animations":[
		{
			"channels":[
				{
					"sampler":0,
					"target":{
						"node":5,
						"path":"rotation"
					}
				}
			],
			"name":"CubeAction",
			"samplers":[
				{
					"input":36,
					"interpolation":"LINEAR",
					"output":37
				}
			]
		}
	],
	"materials":[
		{
			"doubleSided":true,
			"name":"Parete",
			"pbrMetallicRoughness":{
				"baseColorTexture":{
					"index":0
				},
				"metallicFactor":0,
				"roughnessFactor":0.5
			}
		},
		{
			"doubleSided":true,
			"name":"Texture",
			"pbrMetallicRoughness":{
				"baseColorFactor":[
					0,
					0.019794084131717682,
					0.5154242515563965,
					1
				],
				"metallicRoughnessTexture":{
					"index":1
				}
			}
		},
		{
			"doubleSided":true,
			"extensions":{
				"KHR_materials_transmission":{
					"transmissionFactor":1
				},
				"KHR_materials_specular":{
					"specularFactor":0
				},
				"KHR_materials_ior":{
					"ior":1
				}
			},
			"name":"Trank_bark",
			"pbrMetallicRoughness":{
				"baseColorTexture":{
					"index":2
				},
				"metallicFactor":0,
				"roughnessFactor":0.873508870601654
			}
		}
	],
	"meshes":[
		{
			"name":"Cylinder.013",
			"primitives":[
				{
					"attributes":{
						"POSITION":0,
						"NORMAL":1,
						"TEXCOORD_0":2
					},
					"indices":3,
					"material":0
				}
			]
		},
		{
			"name":"Cylinder.015",
			"primitives":[
				{
					"attributes":{
						"POSITION":4,
						"NORMAL":5,
						"TEXCOORD_0":6
					},
					"indices":7,
					"material":0
				}
			]
		},
		{
			"name":"Sphere",
			"primitives":[
				{
					"attributes":{
						"POSITION":8,
						"NORMAL":9,
						"TEXCOORD_0":10
					},
					"indices":11,
					"material":1
				}
			]
		},
		{
			"name":"Cube.010",
			"primitives":[
				{
					"attributes":{
						"POSITION":12,
						"NORMAL":13,
						"TEXCOORD_0":14
					},
					"indices":15
				}
			]
		},
		{
			"name":"Tree",
			"primitives":[
				{
					"attributes":{
						"POSITION":16,
						"NORMAL":17,
						"TEXCOORD_0":18
					},
					"indices":19,
					"material":2
				}
			]
		},
		{
			"name":"Cylinder.008",
			"primitives":[
				{
					"attributes":{
						"POSITION":20,
						"NORMAL":21,
						"TEXCOORD_0":22
					},
					"indices":23,
					"material":0
				}
			]
		},
		{
			"name":"Cylinder.009",
			"primitives":[
				{
					"attributes":{
						"POSITION":24,
						"NORMAL":25,
						"TEXCOORD_0":26
					},
					"indices":27,
					"material":0
				}
			]
		},
		{
			"name":"Icosphere.003",
			"primitives":[
				{
					"attributes":{
						"POSITION":28,
						"NORMAL":29,
						"TEXCOORD_0":30
					},
					"indices":31,
					"material":0
				}
			]
		},
		{
			"name":"Torus",
			"primitives":[
				{
					"attributes":{
						"POSITION":32,
						"NORMAL":33,
						"TEXCOORD_0":34
					},
					"indices":35,
					"material":0
				}
			]
		}
	],
	"textures":[
		{
			"sampler":0,
			"source":0
		},
		{
			"sampler":1,
			"source":1
		},
		{
			"sampler":0,
			"source":2
		}
	],
	"images":[
		{
			"mimeType":"image/jpeg",
			"name":"Concrete-Texture-1",
			"uri":"Concrete-Texture-1.jpg"
		},
		{
			"mimeType":"image/jpeg",
			"name":"glitches_01_bn",
			"uri":"glitches_01_bn.jpg"
		},
		{
			"mimeType":"image/jpeg",
			"name":"glitches_01 (3)",
			"uri":"glitches_01%203.jpg"
		}
	],
	"accessors":[
		{
			"bufferView":0,
			"componentType":5126,
			"count":768,
			"max":[
				1.429999828338623,
				8.529999732971191,
				1.429999828338623
			],
			"min":[
				-1.429999828338623,
				-8.529999732971191,
				-1.429999828338623
			],
			"type":"VEC3"
		},
		{
			"bufferView":1,
			"componentType":5126,
			"count":768,
			"type":"VEC3"
		},
		{
			"bufferView":2,
			"componentType":5126,
			"count":768,
			"type":"VEC2"
		},
		{
			"bufferView":3,
			"componentType":5123,
			"count":1524,
			"type":"SCALAR"
		},
		{
			"bufferView":4,
			"componentType":5126,
			"count":3072,
			"max":[
				1.996100902557373,
				8.530017852783203,
				7.727581024169922
			],
			"min":[
				-14.742164611816406,
				-8.530006408691406,
				-8.383153915405273
			],
			"type":"VEC3"
		},
		{
			"bufferView":5,
			"componentType":5126,
			"count":3072,
			"type":"VEC3"
		},
		{
			"bufferView":6,
			"componentType":5126,
			"count":3072,
			"type":"VEC2"
		},
		{
			"bufferView":7,
			"componentType":5123,
			"count":6096,
			"type":"SCALAR"
		},
		{
			"bufferView":8,
			"componentType":5126,
			"count":7500,
			"max":[
				3.05572509765625,
				0.10318855196237564,
				3.0704152584075928
			],
			"min":[
				-3.0656180381774902,
				-0.17127150297164917,
				-3.0607211589813232
			],
			"type":"VEC3"
		},
		{
			"bufferView":9,
			"componentType":5126,
			"count":7500,
			"type":"VEC3"
		},
		{
			"bufferView":10,
			"componentType":5126,
			"count":7500,
			"type":"VEC2"
		},
		{
			"bufferView":11,
			"componentType":5123,
			"count":36864,
			"type":"SCALAR"
		},
		{
			"bufferView":12,
			"componentType":5126,
			"count":24,
			"max":[
				0.1043539047241211,
				0.1043539047241211,
				0.1043539047241211
			],
			"min":[
				-0.1043539047241211,
				-0.1043539047241211,
				-0.1043539047241211
			],
			"type":"VEC3"
		},
		{
			"bufferView":13,
			"componentType":5126,
			"count":24,
			"type":"VEC3"
		},
		{
			"bufferView":14,
			"componentType":5126,
			"count":24,
			"type":"VEC2"
		},
		{
			"bufferView":15,
			"componentType":5123,
			"count":36,
			"type":"SCALAR"
		},
		{
			"bufferView":16,
			"componentType":5126,
			"count":493945,
			"max":[
				7.627016544342041,
				7.59041690826416,
				4.604334549185296e-07
			],
			"min":[
				-7.603800296783447,
				-7.615999698638916,
				-3.8219611644744873
			],
			"type":"VEC3"
		},
		{
			"bufferView":17,
			"componentType":5126,
			"count":493945,
			"type":"VEC3"
		},
		{
			"bufferView":18,
			"componentType":5126,
			"count":493945,
			"type":"VEC2"
		},
		{
			"bufferView":19,
			"componentType":5125,
			"count":494064,
			"type":"SCALAR"
		},
		{
			"bufferView":20,
			"componentType":5126,
			"count":2392,
			"max":[
				3.8899998664855957,
				3.7548558712005615,
				3.8899998664855957
			],
			"min":[
				-3.8899998664855957,
				-0.23188996315002441,
				-3.8899998664855957
			],
			"type":"VEC3"
		},
		{
			"bufferView":21,
			"componentType":5126,
			"count":2392,
			"type":"VEC3"
		},
		{
			"bufferView":22,
			"componentType":5126,
			"count":2392,
			"type":"VEC2"
		},
		{
			"bufferView":23,
			"componentType":5123,
			"count":4968,
			"type":"SCALAR"
		},
		{
			"bufferView":24,
			"componentType":5126,
			"count":384,
			"max":[
				3.6517446041107178,
				-0.034222811460494995,
				3.6517446041107178
			],
			"min":[
				-3.6517446041107178,
				-0.4602271616458893,
				-3.6517446041107178
			],
			"type":"VEC3"
		},
		{
			"bufferView":25,
			"componentType":5126,
			"count":384,
			"type":"VEC3"
		},
		{
			"bufferView":26,
			"componentType":5126,
			"count":384,
			"type":"VEC2"
		},
		{
			"bufferView":27,
			"componentType":5123,
			"count":756,
			"type":"SCALAR"
		},
		{
			"bufferView":28,
			"componentType":5126,
			"count":59336,
			"max":[
				6,
				0,
				6
			],
			"min":[
				-6.000000476837158,
				-5.598593235015869,
				-6
			],
			"type":"VEC3"
		},
		{
			"bufferView":29,
			"componentType":5126,
			"count":59336,
			"type":"VEC3"
		},
		{
			"bufferView":30,
			"componentType":5126,
			"count":59336,
			"type":"VEC2"
		},
		{
			"bufferView":31,
			"componentType":5123,
			"count":62022,
			"type":"SCALAR"
		},
		{
			"bufferView":32,
			"componentType":5126,
			"count":9216,
			"max":[
				4.089999675750732,
				0.2199999988079071,
				4.089999675750732
			],
			"min":[
				-4.089999675750732,
				-0.2199999988079071,
				-4.089999675750732
			],
			"type":"VEC3"
		},
		{
			"bufferView":33,
			"componentType":5126,
			"count":9216,
			"type":"VEC3"
		},
		{
			"bufferView":34,
			"componentType":5126,
			"count":9216,
			"type":"VEC2"
		},
		{
			"bufferView":35,
			"componentType":5123,
			"count":13824,
			"type":"SCALAR"
		},
		{
			"bufferView":36,
			"componentType":5126,
			"count":480,
			"max":[
				20
			],
			"min":[
				0.041666666666666664
			],
			"type":"SCALAR"
		},
		{
			"bufferView":37,
			"componentType":5126,
			"count":480,
			"type":"VEC4"
		}
	],
	"bufferViews":[
		{
			"buffer":0,
			"byteLength":9216,
			"byteOffset":0,
			"target":34962
		},
		{
			"buffer":0,
			"byteLength":9216,
			"byteOffset":9216,
			"target":34962
		},
		{
			"buffer":0,
			"byteLength":6144,
			"byteOffset":18432,
			"target":34962
		},
		{
			"buffer":0,
			"byteLength":3048,
			"byteOffset":24576,
			"target":34963
		},
		{
			"buffer":0,
			"byteLength":36864,
			"byteOffset":27624,
			"target":34962
		},
		{
			"buffer":0,
			"byteLength":36864,
			"byteOffset":64488,
			"target":34962
		},
		{
			"buffer":0,
			"byteLength":24576,
			"byteOffset":101352,
			"target":34962
		},
		{
			"buffer":0,
			"byteLength":12192,
			"byteOffset":125928,
			"target":34963
		},
		{
			"buffer":0,
			"byteLength":90000,
			"byteOffset":138120,
			"target":34962
		},
		{
			"buffer":0,
			"byteLength":90000,
			"byteOffset":228120,
			"target":34962
		},
		{
			"buffer":0,
			"byteLength":60000,
			"byteOffset":318120,
			"target":34962
		},
		{
			"buffer":0,
			"byteLength":73728,
			"byteOffset":378120,
			"target":34963
		},
		{
			"buffer":0,
			"byteLength":288,
			"byteOffset":451848,
			"target":34962
		},
		{
			"buffer":0,
			"byteLength":288,
			"byteOffset":452136,
			"target":34962
		},
		{
			"buffer":0,
			"byteLength":192,
			"byteOffset":452424,
			"target":34962
		},
		{
			"buffer":0,
			"byteLength":72,
			"byteOffset":452616,
			"target":34963
		},
		{
			"buffer":0,
			"byteLength":5927340,
			"byteOffset":452688,
			"target":34962
		},
		{
			"buffer":0,
			"byteLength":5927340,
			"byteOffset":6380028,
			"target":34962
		},
		{
			"buffer":0,
			"byteLength":3951560,
			"byteOffset":12307368,
			"target":34962
		},
		{
			"buffer":0,
			"byteLength":1976256,
			"byteOffset":16258928,
			"target":34963
		},
		{
			"buffer":0,
			"byteLength":28704,
			"byteOffset":18235184,
			"target":34962
		},
		{
			"buffer":0,
			"byteLength":28704,
			"byteOffset":18263888,
			"target":34962
		},
		{
			"buffer":0,
			"byteLength":19136,
			"byteOffset":18292592,
			"target":34962
		},
		{
			"buffer":0,
			"byteLength":9936,
			"byteOffset":18311728,
			"target":34963
		},
		{
			"buffer":0,
			"byteLength":4608,
			"byteOffset":18321664,
			"target":34962
		},
		{
			"buffer":0,
			"byteLength":4608,
			"byteOffset":18326272,
			"target":34962
		},
		{
			"buffer":0,
			"byteLength":3072,
			"byteOffset":18330880,
			"target":34962
		},
		{
			"buffer":0,
			"byteLength":1512,
			"byteOffset":18333952,
			"target":34963
		},
		{
			"buffer":0,
			"byteLength":712032,
			"byteOffset":18335464,
			"target":34962
		},
		{
			"buffer":0,
			"byteLength":712032,
			"byteOffset":19047496,
			"target":34962
		},
		{
			"buffer":0,
			"byteLength":474688,
			"byteOffset":19759528,
			"target":34962
		},
		{
			"buffer":0,
			"byteLength":124044,
			"byteOffset":20234216,
			"target":34963
		},
		{
			"buffer":0,
			"byteLength":110592,
			"byteOffset":20358260,
			"target":34962
		},
		{
			"buffer":0,
			"byteLength":110592,
			"byteOffset":20468852,
			"target":34962
		},
		{
			"buffer":0,
			"byteLength":73728,
			"byteOffset":20579444,
			"target":34962
		},
		{
			"buffer":0,
			"byteLength":27648,
			"byteOffset":20653172,
			"target":34963
		},
		{
			"buffer":0,
			"byteLength":1920,
			"byteOffset":20680820
		},
		{
			"buffer":0,
			"byteLength":7680,
			"byteOffset":20682740
		}
	],
	"samplers":[
		{
			"magFilter":9729,
			"minFilter":9987
		},
		{
			"magFilter":9729,
			"minFilter":9987,
			"wrapS":33071,
			"wrapT":33071
		}
	],
	"buffers":[
		{
			"byteLength":20690420,
			"uri":"CV_Heart_color_2.bin"
		}
	]
}
